<svg width="102" height="130" viewBox="0 0 102 130" fill="none" xmlns="http://www.w3.org/2000/svg">
<g clip-path="url(#clip0_106_142)">
<mask id="mask0_106_142" style="mask-type:luminance" maskUnits="userSpaceOnUse" x="0" y="0" width="102" height="101">
<path d="M0.92627 0H101.476V100.55H0.92627V0Z" fill="white"/>
</mask>
<g mask="url(#mask0_106_142)">
<path d="M0.92627 0V100.372H13.2315V12.3053H101.299V0H0.92627Z" fill="#201F1A"/>
</g>
<mask id="mask1_106_142" style="mask-type:luminance" maskUnits="userSpaceOnUse" x="50" y="25" width="52" height="77">
<path d="M50.5493 25.8491H101.477V101.723H50.5493V25.8491Z" fill="white"/>
</mask>
<g mask="url(#mask1_106_142)">
<path d="M89.033 89.3215H51.1323V101.544H101.259V26.3262H89.033V89.3215Z" fill="#FF5900"/>
</g>
<mask id="mask2_106_142" style="mask-type:luminance" maskUnits="userSpaceOnUse" x="25" y="24" width="52" height="77">
<path d="M25.2539 24.6768H76.6884V100.55H25.2539V24.6768Z" fill="white"/>
</mask>
<g mask="url(#mask2_106_142)">
<path d="M70.124 75.2807H76.2041V25.1538H26.0806V100.372H38.3035V75.2807H70.124ZM38.3266 37.3998H63.9186V62.9952H38.3266V37.3998Z" fill="#201F1A"/>
</g>
<path d="M1.41837 121.183V108.756H3.92175V121.183H1.41837ZM2.53499 121.183V118.86H9.46879V121.183H2.53499ZM19.4319 121.417C18.3633 121.417 17.4448 121.213 16.6764 120.805C15.92 120.397 15.3377 119.82 14.9294 119.076C14.5332 118.32 14.3351 117.431 14.3351 116.41V108.756H16.8205V116.266C16.8205 117.167 17.0426 117.863 17.4868 118.356C17.9431 118.836 18.5975 119.076 19.4499 119.076C20.3144 119.076 20.9748 118.836 21.431 118.356C21.8873 117.863 22.1154 117.167 22.1154 116.266V108.756H24.5467V116.41C24.5467 117.431 24.3426 118.32 23.9344 119.076C23.5262 119.82 22.9438 120.397 22.1874 120.805C21.431 121.213 20.5125 121.417 19.4319 121.417ZM31.3459 121.183V118.896H35.3801C36.0765 118.896 36.5747 118.764 36.8749 118.5C37.1751 118.223 37.3252 117.851 37.3252 117.383C37.3252 116.903 37.1751 116.531 36.8749 116.266C36.5747 115.99 36.0765 115.852 35.3801 115.852H31.3459V114.339H35.7583C37.091 114.339 38.1116 114.652 38.82 115.276C39.5284 115.9 39.8826 116.699 39.8826 117.671C39.8826 118.704 39.5104 119.55 38.7659 120.211C38.0215 120.859 36.965 121.183 35.5962 121.183H31.3459ZM30.2293 121.183V108.756H32.7326V121.183H30.2293ZM31.3459 114.934V113.817H35.0559C35.6923 113.817 36.1545 113.691 36.4427 113.439C36.7428 113.175 36.8929 112.833 36.8929 112.412C36.8929 111.992 36.7428 111.662 36.4427 111.422C36.1545 111.17 35.6923 111.044 35.0559 111.044H31.3459V108.756H35.29C36.1665 108.756 36.9109 108.894 37.5233 109.171C38.1476 109.435 38.6219 109.813 38.946 110.305C39.2702 110.785 39.4323 111.344 39.4323 111.98C39.4323 112.845 39.0721 113.553 38.3517 114.105C37.6433 114.658 36.6048 114.934 35.236 114.934H31.3459ZM53.1885 121.183L49.2803 108.756H51.7477L55.8359 121.183H53.1885ZM43.9494 121.183L48.0377 108.756H50.3609L46.5428 121.183H43.9494ZM46.5789 118.139V115.924H53.2065V118.139H46.5789ZM61.6517 117.185V114.862H65.2537C66.0942 114.862 66.7005 114.706 67.0727 114.393C67.4569 114.069 67.649 113.595 67.649 112.971C67.649 112.346 67.4569 111.878 67.0727 111.566C66.7005 111.242 66.0942 111.08 65.2537 111.08H61.6517V108.756H65.4158C66.4363 108.756 67.3008 108.93 68.0092 109.279C68.7296 109.615 69.2759 110.101 69.6481 110.737C70.0203 111.362 70.2064 112.106 70.2064 112.971C70.2064 113.823 70.0203 114.567 69.6481 115.204C69.2759 115.84 68.7296 116.332 68.0092 116.681C67.3008 117.017 66.4363 117.185 65.4158 117.185H61.6517ZM60.5351 121.183V108.756H63.0385V121.183H60.5351ZM76.3474 116.825V114.501H79.9854C80.7418 114.501 81.2941 114.357 81.6423 114.069C81.9905 113.781 82.1646 113.355 82.1646 112.791C82.1646 112.214 81.9905 111.788 81.6423 111.512C81.2941 111.224 80.7418 111.08 79.9854 111.08H76.3474V108.756H80.1655C81.6062 108.756 82.7229 109.122 83.5153 109.855C84.3197 110.575 84.722 111.554 84.722 112.791C84.722 114.015 84.3197 114.994 83.5153 115.726C82.7229 116.459 81.6062 116.825 80.1655 116.825H76.3474ZM75.2308 121.183V108.756H77.7341V121.183H75.2308ZM82.2006 121.183L78.9048 115.798H81.5162L85.0281 121.183H82.2006ZM95.326 121.417C94.1854 121.417 93.1828 121.159 92.3183 120.643C91.4659 120.127 90.7935 119.388 90.3012 118.428C89.821 117.467 89.5808 116.314 89.5808 114.97C89.5808 113.625 89.821 112.472 90.3012 111.512C90.7935 110.539 91.4659 109.801 92.3183 109.297C93.1828 108.78 94.1854 108.522 95.326 108.522C96.4666 108.522 97.4692 108.78 98.3336 109.297C99.1981 109.801 99.8705 110.539 100.351 111.512C100.843 112.472 101.089 113.625 101.089 114.97C101.089 116.314 100.843 117.467 100.351 118.428C99.8705 119.388 99.1981 120.127 98.3336 120.643C97.4692 121.159 96.4666 121.417 95.326 121.417ZM95.326 119.076C96.3105 119.076 97.0909 118.728 97.6673 118.031C98.2436 117.335 98.5317 116.314 98.5317 114.97C98.5317 113.625 98.2436 112.604 97.6673 111.908C97.0909 111.212 96.3105 110.863 95.326 110.863C94.3534 110.863 93.573 111.212 92.9847 111.908C92.4084 112.604 92.1202 113.625 92.1202 114.97C92.1202 116.314 92.4084 117.335 92.9847 118.031C93.573 118.728 94.3534 119.076 95.326 119.076Z" fill="black"/>
</g>
<defs>
<clipPath id="clip0_106_142">
<rect width="102" height="129.183" fill="white"/>
</clipPath>
</defs>
</svg>
