<svg width="161" height="206" viewBox="0 0 161 206" fill="none" xmlns="http://www.w3.org/2000/svg">
<mask id="mask0_121_169" style="mask-type:luminance" maskUnits="userSpaceOnUse" x="1" y="0" width="160" height="159">
<path d="M1.46484 0H160.465V159H1.46484V0Z" fill="white"/>
</mask>
<g mask="url(#mask0_121_169)">
<path d="M1.46484 0V158.719H20.9232V19.4583H160.184V0H1.46484Z" fill="white"/>
</g>
<mask id="mask1_121_169" style="mask-type:luminance" maskUnits="userSpaceOnUse" x="79" y="39" width="82" height="120">
<path d="M79.9336 39.0208H160.465V159H79.9336V39.0208Z" fill="white"/>
</mask>
<g mask="url(#mask1_121_169)">
<path d="M140.788 139.391H80.8555V158.719H160.121V39.776H140.788V139.391Z" fill="white"/>
</g>
<mask id="mask2_121_169" style="mask-type:luminance" maskUnits="userSpaceOnUse" x="39" y="39" width="83" height="120">
<path d="M39.9336 39.0208H121.267V159H39.9336V39.0208Z" fill="white"/>
</mask>
<g mask="url(#mask2_121_169)">
<path d="M110.887 119.042H120.501V39.776H41.241V158.719H60.5691V119.042H110.887ZM60.6056 59.1406H101.074V99.6145H60.6056V59.1406Z" fill="white"/>
</g>
<path d="M2.09653 191.42V171.769H6.05512V191.42H2.09653ZM3.86223 191.42V187.746H14.8267V191.42H3.86223ZM30.5814 191.79C28.8916 191.79 27.4392 191.467 26.2241 190.822C25.0279 190.176 24.1071 189.265 23.4616 188.088C22.8351 186.892 22.5218 185.487 22.5218 183.873V171.769H26.4519V183.645C26.4519 185.069 26.8031 186.17 27.5056 186.948C28.2271 187.708 29.2618 188.088 30.6098 188.088C31.9768 188.088 33.0211 187.708 33.7425 186.948C34.464 186.17 34.8247 185.069 34.8247 183.645V171.769H38.6694V183.873C38.6694 185.487 38.3466 186.892 37.7011 188.088C37.0556 189.265 36.1348 190.176 34.9386 190.822C33.7425 191.467 32.2901 191.79 30.5814 191.79ZM49.4209 191.42V187.803H55.8002C56.9014 187.803 57.6893 187.594 58.164 187.176C58.6386 186.74 58.8759 186.151 58.8759 185.411C58.8759 184.651 58.6386 184.063 58.164 183.645C57.6893 183.208 56.9014 182.99 55.8002 182.99H49.4209V180.598H56.3983C58.5057 180.598 60.1195 181.091 61.2397 182.079C62.3599 183.066 62.92 184.328 62.92 185.866C62.92 187.499 62.3314 188.838 61.1543 189.882C59.9771 190.907 58.3064 191.42 56.142 191.42H49.4209ZM47.6552 191.42V171.769H51.6138V191.42H47.6552ZM49.4209 181.537V179.772H55.2876C56.2938 179.772 57.0248 179.572 57.4805 179.174C57.9551 178.756 58.1925 178.215 58.1925 177.55C58.1925 176.886 57.9551 176.364 57.4805 175.984C57.0248 175.585 56.2938 175.386 55.2876 175.386H49.4209V171.769H55.6578C57.0438 171.769 58.2209 171.987 59.1892 172.424C60.1765 172.842 60.9264 173.44 61.4391 174.218C61.9517 174.978 62.208 175.861 62.208 176.867C62.208 178.234 61.6384 179.354 60.4993 180.227C59.3791 181.101 57.7368 181.537 55.5724 181.537H49.4209ZM83.9606 191.42L77.7807 171.769H81.6823L88.1471 191.42H83.9606ZM69.3509 191.42L75.8156 171.769H79.4894L73.4519 191.42H69.3509ZM73.5088 186.607V183.104H83.9891V186.607H73.5088ZM97.3436 185.097V181.424H103.039C104.368 181.424 105.327 181.177 105.916 180.683C106.523 180.17 106.827 179.421 106.827 178.433C106.827 177.446 106.523 176.706 105.916 176.212C105.327 175.699 104.368 175.443 103.039 175.443H97.3436V171.769H103.296C104.909 171.769 106.276 172.044 107.397 172.595C108.536 173.127 109.4 173.896 109.988 174.902C110.577 175.889 110.871 177.066 110.871 178.433C110.871 179.781 110.577 180.958 109.988 181.965C109.4 182.971 108.536 183.749 107.397 184.3C106.276 184.832 104.909 185.097 103.296 185.097H97.3436ZM95.5779 191.42V171.769H99.5365V191.42H95.5779ZM120.582 184.528V180.854H126.335C127.531 180.854 128.404 180.626 128.955 180.17C129.505 179.715 129.781 179.041 129.781 178.148C129.781 177.237 129.505 176.563 128.955 176.126C128.404 175.671 127.531 175.443 126.335 175.443H120.582V171.769H126.619C128.898 171.769 130.663 172.348 131.916 173.506C133.189 174.646 133.825 176.193 133.825 178.148C133.825 180.085 133.189 181.632 131.916 182.791C130.663 183.949 128.898 184.528 126.619 184.528H120.582ZM118.816 191.42V171.769H122.775V191.42H118.816ZM129.837 191.42L124.626 182.904H128.755L134.309 191.42H129.837ZM150.593 191.79C148.789 191.79 147.204 191.382 145.837 190.565C144.489 189.749 143.425 188.581 142.647 187.062C141.888 185.544 141.508 183.721 141.508 181.594C141.508 179.468 141.888 177.645 142.647 176.126C143.425 174.589 144.489 173.421 145.837 172.624C147.204 171.807 148.789 171.399 150.593 171.399C152.396 171.399 153.982 171.807 155.349 172.624C156.716 173.421 157.779 174.589 158.538 176.126C159.317 177.645 159.706 179.468 159.706 181.594C159.706 183.721 159.317 185.544 158.538 187.062C157.779 188.581 156.716 189.749 155.349 190.565C153.982 191.382 152.396 191.79 150.593 191.79ZM150.593 188.088C152.15 188.088 153.384 187.537 154.295 186.436C155.206 185.335 155.662 183.721 155.662 181.594C155.662 179.468 155.206 177.854 154.295 176.753C153.384 175.652 152.15 175.101 150.593 175.101C149.055 175.101 147.821 175.652 146.89 176.753C145.979 177.854 145.523 179.468 145.523 181.594C145.523 183.721 145.979 185.335 146.89 186.436C147.821 187.537 149.055 188.088 150.593 188.088Z" fill="white"/>
</svg>
